<svg width="266" height="127" viewBox="0 0 266 127" fill="none" xmlns="http://www.w3.org/2000/svg">
<path d="M17.7 25.6V33.28H22.2C23.24 33.28 23.94 33.02 24.3 32.5C24.66 31.94 24.84 31.26 24.84 30.46V28.42C24.84 27.62 24.66 26.96 24.3 26.44C23.94 25.88 23.24 25.6 22.2 25.6H17.7ZM15.54 58H6.3C5.54 58 4.98 57.84 4.62 57.52C4.3 57.16 4.14 56.6 4.14 55.84V16.96C4.14 16.2 4.3 15.66 4.62 15.34C4.98 14.98 5.54 14.8 6.3 14.8H26.28C30.76 14.8 33.84 15.74 35.52 17.62C37.24 19.46 38.1 21.86 38.1 24.82V27.58C38.1 29.26 37.84 30.7 37.32 31.9C36.84 33.06 35.98 33.9 34.74 34.42C36.9 34.66 38.64 35.54 39.96 37.06C41.32 38.58 42 40.6 42 43.12V55.84C42 56.6 41.82 57.16 41.46 57.52C41.14 57.84 40.6 58 39.84 58H30.54C29.78 58 29.22 57.84 28.86 57.52C28.54 57.16 28.38 56.6 28.38 55.84V46.66C28.38 45.78 28.2 45.14 27.84 44.74C27.52 44.3 26.94 44.08 26.1 44.08H17.7V55.84C17.7 56.6 17.52 57.16 17.16 57.52C16.84 57.84 16.3 58 15.54 58ZM85.0369 46.66C85.0369 48.5 84.7569 50.18 84.1969 51.7C83.6769 53.18 82.7169 54.46 81.3169 55.54C79.9569 56.58 78.0569 57.4 75.6169 58C73.2169 58.6 70.1569 58.9 66.4369 58.9C62.7169 58.9 59.6369 58.6 57.1969 58C54.7569 57.4 52.8369 56.58 51.4369 55.54C50.0769 54.46 49.1169 53.18 48.5569 51.7C48.0369 50.18 47.7769 48.5 47.7769 46.66V26.2C47.7769 24.36 48.0369 22.7 48.5569 21.22C49.1169 19.7 50.0769 18.4 51.4369 17.32C52.8369 16.24 54.7569 15.4 57.1969 14.8C59.6369 14.2 62.7169 13.9 66.4369 13.9C70.1569 13.9 73.2169 14.2 75.6169 14.8C78.0569 15.4 79.9569 16.24 81.3169 17.32C82.7169 18.4 83.6769 19.7 84.1969 21.22C84.7569 22.7 85.0369 24.36 85.0369 26.2V46.66ZM61.3969 44.5C61.3969 45.3 61.6969 45.98 62.2969 46.54C62.8969 47.06 64.2769 47.32 66.4369 47.32C68.5969 47.32 69.9769 47.06 70.5769 46.54C71.1769 45.98 71.4769 45.3 71.4769 44.5V28.36C71.4769 27.6 71.1769 26.96 70.5769 26.44C69.9769 25.88 68.5969 25.6 66.4369 25.6C64.2769 25.6 62.8969 25.88 62.2969 26.44C61.6969 26.96 61.3969 27.6 61.3969 28.36V44.5ZM129.455 46.66C129.455 48.5 129.175 50.18 128.615 51.7C128.095 53.18 127.135 54.46 125.735 55.54C124.375 56.58 122.495 57.4 120.095 58C117.695 58.6 114.635 58.9 110.915 58.9C107.195 58.9 104.135 58.6 101.735 58C99.3352 57.4 97.4352 56.58 96.0352 55.54C94.6752 54.46 93.7152 53.18 93.1552 51.7C92.6352 50.18 92.3752 48.5 92.3752 46.66V16.96C92.3752 16.2 92.5352 15.66 92.8552 15.34C93.2152 14.98 93.7752 14.8 94.5352 14.8H103.955C104.715 14.8 105.255 14.98 105.575 15.34C105.935 15.66 106.115 16.2 106.115 16.96V44.32C106.115 45.12 106.415 45.8 107.015 46.36C107.615 46.88 108.955 47.14 111.035 47.14C113.155 47.14 114.515 46.88 115.115 46.36C115.715 45.8 116.015 45.12 116.015 44.32V16.96C116.015 16.2 116.175 15.66 116.495 15.34C116.855 14.98 117.415 14.8 118.175 14.8H127.295C128.055 14.8 128.595 14.98 128.915 15.34C129.275 15.66 129.455 16.2 129.455 16.96V46.66ZM157.841 58H148.121C147.361 58 146.801 57.84 146.441 57.52C146.121 57.16 145.961 56.6 145.961 55.84V26.38H137.141C136.381 26.38 135.821 26.22 135.461 25.9C135.141 25.54 134.981 24.98 134.981 24.22V16.96C134.981 16.2 135.141 15.66 135.461 15.34C135.821 14.98 136.381 14.8 137.141 14.8H168.821C169.581 14.8 170.121 14.98 170.441 15.34C170.801 15.66 170.981 16.2 170.981 16.96V24.22C170.981 24.98 170.801 25.54 170.441 25.9C170.121 26.22 169.581 26.38 168.821 26.38H160.001V55.84C160.001 56.6 159.821 57.16 159.461 57.52C159.141 57.84 158.601 58 157.841 58ZM206.816 58H178.976C178.216 58 177.656 57.84 177.296 57.52C176.976 57.16 176.816 56.6 176.816 55.84V16.96C176.816 16.2 176.976 15.66 177.296 15.34C177.656 14.98 178.216 14.8 178.976 14.8H206.816C207.576 14.8 208.116 14.98 208.436 15.34C208.796 15.66 208.976 16.2 208.976 16.96V23.98C208.976 24.74 208.796 25.3 208.436 25.66C208.116 25.98 207.576 26.14 206.816 26.14H190.256V30.76H201.956C202.716 30.76 203.256 30.94 203.576 31.3C203.936 31.62 204.116 32.16 204.116 32.92V39.34C204.116 40.1 203.936 40.66 203.576 41.02C203.256 41.34 202.716 41.5 201.956 41.5H190.256V46.66H206.816C207.576 46.66 208.116 46.84 208.436 47.2C208.796 47.52 208.976 48.06 208.976 48.82V55.84C208.976 56.6 208.796 57.16 208.436 57.52C208.116 57.84 207.576 58 206.816 58Z" fill="white"/>
<path d="M35.6405 69.7916H44.5805C45.3405 69.7916 45.8805 69.9716 46.2005 70.3316C46.5605 70.6516 46.7405 71.1916 46.7405 71.9516V95.2316C46.7405 96.5116 46.6805 97.7116 46.5605 98.8316C46.4805 99.9116 46.1805 101.192 45.6605 102.672L42.6605 110.832C42.4605 111.432 42.1605 111.952 41.7605 112.392C41.4005 112.792 40.9005 112.992 40.2605 112.992H32.2805C31.6405 112.992 31.0605 112.852 30.5405 112.572C30.0205 112.292 29.6805 111.832 29.5205 111.192L26.7605 101.412C26.6405 101.012 26.4805 100.752 26.2805 100.632C26.1205 100.472 25.9205 100.392 25.6805 100.392H25.1405C24.9005 100.392 24.6805 100.472 24.4805 100.632C24.3205 100.752 24.1805 101.012 24.0605 101.412L21.2405 111.192C21.0805 111.792 20.7805 112.252 20.3405 112.572C19.9005 112.852 19.3605 112.992 18.7205 112.992H10.8005C10.1605 112.992 9.60047 112.792 9.12047 112.392C8.68047 111.992 8.36047 111.472 8.16047 110.832L5.16047 102.552C4.64047 101.072 4.32047 99.7916 4.20047 98.7116C4.12047 97.5916 4.08047 96.3916 4.08047 95.1116V71.9516C4.08047 71.1916 4.24047 70.6516 4.56047 70.3316C4.92047 69.9716 5.48047 69.7916 6.24047 69.7916H15.4805C16.2405 69.7916 16.7805 69.9716 17.1005 70.3316C17.4605 70.6516 17.6405 71.1916 17.6405 71.9516V94.0316L21.1205 86.4716C21.4405 85.7916 21.8605 85.3116 22.3805 85.0316C22.9005 84.7516 23.5405 84.6116 24.3005 84.6116H26.8205C27.5805 84.6116 28.2205 84.7516 28.7405 85.0316C29.2605 85.3116 29.6805 85.7916 30.0005 86.4716L33.4805 94.0316V71.9516C33.4805 71.1916 33.6405 70.6516 33.9605 70.3316C34.3205 69.9716 34.8805 69.7916 35.6405 69.7916ZM84.4838 112.992H56.6438C55.8838 112.992 55.3238 112.832 54.9638 112.512C54.6438 112.152 54.4838 111.592 54.4838 110.832V71.9516C54.4838 71.1916 54.6438 70.6516 54.9638 70.3316C55.3238 69.9716 55.8838 69.7916 56.6438 69.7916H84.4838C85.2438 69.7916 85.7838 69.9716 86.1038 70.3316C86.4638 70.6516 86.6438 71.1916 86.6438 71.9516V78.9716C86.6438 79.7316 86.4638 80.2916 86.1038 80.6516C85.7838 80.9716 85.2438 81.1316 84.4838 81.1316H67.9238V85.7516H79.6238C80.3838 85.7516 80.9238 85.9316 81.2438 86.2916C81.6038 86.6116 81.7838 87.1516 81.7838 87.9116V94.3316C81.7838 95.0916 81.6038 95.6516 81.2438 96.0116C80.9238 96.3316 80.3838 96.4916 79.6238 96.4916H67.9238V101.652H84.4838C85.2438 101.652 85.7838 101.832 86.1038 102.192C86.4638 102.512 86.6438 103.052 86.6438 103.812V110.832C86.6438 111.592 86.4638 112.152 86.1038 112.512C85.7838 112.832 85.2438 112.992 84.4838 112.992ZM109.402 82.3916L106.582 91.5116H116.002L113.182 82.3916C113.022 82.0316 112.842 81.7716 112.642 81.6116C112.482 81.4516 112.282 81.3716 112.042 81.3716H110.542C110.302 81.3716 110.082 81.4516 109.882 81.6116C109.722 81.7716 109.562 82.0316 109.402 82.3916ZM105.982 110.832C105.982 111.592 105.802 112.152 105.442 112.512C105.122 112.832 104.582 112.992 103.822 112.992H95.0016C94.2416 112.992 93.6816 112.832 93.3216 112.512C93.0016 112.152 92.8416 111.592 92.8416 110.832V94.9916C92.8416 93.7916 93.0216 92.4116 93.3816 90.8516C93.7816 89.2916 94.3816 87.4716 95.1816 85.3916L100.402 71.7716C100.642 71.0916 101.002 70.5916 101.482 70.2716C102.002 69.9516 102.662 69.7916 103.462 69.7916H119.602C120.362 69.7916 120.982 69.9516 121.462 70.2716C121.982 70.5916 122.362 71.0916 122.602 71.7716L127.822 85.3916C128.622 87.4716 129.202 89.2916 129.562 90.8516C129.962 92.4116 130.162 93.7916 130.162 94.9916V110.832C130.162 111.592 129.982 112.152 129.622 112.512C129.302 112.832 128.762 112.992 128.002 112.992H118.942C118.142 112.992 117.542 112.832 117.142 112.512C116.782 112.152 116.602 111.592 116.602 110.832V102.432H105.982V110.832ZM162.544 112.992H146.944C146.184 112.992 145.544 112.852 145.024 112.572C144.544 112.292 144.164 111.772 143.884 111.012L138.004 96.3116C137.644 95.4316 137.344 94.6716 137.104 94.0316C136.864 93.3516 136.664 92.7116 136.504 92.1116C136.344 91.5116 136.224 90.8916 136.144 90.2516C136.104 89.5716 136.084 88.7516 136.084 87.7916V71.9516C136.084 71.1916 136.244 70.6516 136.564 70.3316C136.924 69.9716 137.484 69.7916 138.244 69.7916H147.784C148.544 69.7916 149.124 69.9716 149.524 70.3316C149.924 70.6516 150.124 71.1916 150.124 71.9516V88.5116C150.124 88.9116 150.164 89.3116 150.244 89.7116C150.324 90.1116 150.444 90.5316 150.604 90.9716L153.424 99.3716C153.544 99.7716 153.684 100.052 153.844 100.212C154.004 100.332 154.244 100.392 154.564 100.392H155.224C155.544 100.392 155.784 100.332 155.944 100.212C156.104 100.052 156.244 99.7716 156.364 99.3716L159.184 90.9116C159.344 90.4716 159.464 90.0516 159.544 89.6516C159.624 89.2516 159.664 88.8516 159.664 88.4516V71.9516C159.664 71.1916 159.824 70.6516 160.144 70.3316C160.504 69.9716 161.064 69.7916 161.824 69.7916H171.244C172.004 69.7916 172.544 69.9716 172.864 70.3316C173.224 70.6516 173.404 71.1916 173.404 71.9516V87.7916C173.404 88.7516 173.364 89.5716 173.284 90.2516C173.244 90.8916 173.144 91.5116 172.984 92.1116C172.824 92.7116 172.624 93.3516 172.384 94.0316C172.144 94.6716 171.844 95.4316 171.484 96.3116L165.604 111.012C165.324 111.772 164.924 112.292 164.404 112.572C163.924 112.852 163.304 112.992 162.544 112.992ZM210.812 112.992H182.972C182.212 112.992 181.652 112.832 181.292 112.512C180.972 112.152 180.812 111.592 180.812 110.832V71.9516C180.812 71.1916 180.972 70.6516 181.292 70.3316C181.652 69.9716 182.212 69.7916 182.972 69.7916H210.812C211.572 69.7916 212.112 69.9716 212.432 70.3316C212.792 70.6516 212.972 71.1916 212.972 71.9516V78.9716C212.972 79.7316 212.792 80.2916 212.432 80.6516C212.112 80.9716 211.572 81.1316 210.812 81.1316H194.252V85.7516H205.952C206.712 85.7516 207.252 85.9316 207.572 86.2916C207.932 86.6116 208.112 87.1516 208.112 87.9116V94.3316C208.112 95.0916 207.932 95.6516 207.572 96.0116C207.252 96.3316 206.712 96.4916 205.952 96.4916H194.252V101.652H210.812C211.572 101.652 212.112 101.832 212.432 102.192C212.792 102.512 212.972 103.052 212.972 103.812V110.832C212.972 111.592 212.792 112.152 212.432 112.512C212.112 112.832 211.572 112.992 210.812 112.992ZM233.63 80.5916V88.2716H238.13C239.17 88.2716 239.87 88.0116 240.23 87.4916C240.59 86.9316 240.77 86.2516 240.77 85.4516V83.4116C240.77 82.6116 240.59 81.9516 240.23 81.4316C239.87 80.8716 239.17 80.5916 238.13 80.5916H233.63ZM231.47 112.992H222.23C221.47 112.992 220.91 112.832 220.55 112.512C220.23 112.152 220.07 111.592 220.07 110.832V71.9516C220.07 71.1916 220.23 70.6516 220.55 70.3316C220.91 69.9716 221.47 69.7916 222.23 69.7916H242.21C246.69 69.7916 249.77 70.7316 251.45 72.6116C253.17 74.4516 254.03 76.8516 254.03 79.8116V82.5716C254.03 84.2516 253.77 85.6916 253.25 86.8916C252.77 88.0516 251.91 88.8916 250.67 89.4116C252.83 89.6516 254.57 90.5316 255.89 92.0516C257.25 93.5716 257.93 95.5916 257.93 98.1116V110.832C257.93 111.592 257.75 112.152 257.39 112.512C257.07 112.832 256.53 112.992 255.77 112.992H246.47C245.71 112.992 245.15 112.832 244.79 112.512C244.47 112.152 244.31 111.592 244.31 110.832V101.652C244.31 100.772 244.13 100.132 243.77 99.7316C243.45 99.2916 242.87 99.0716 242.03 99.0716H233.63V110.832C233.63 111.592 233.45 112.152 233.09 112.512C232.77 112.832 232.23 112.992 231.47 112.992Z" fill="white"/>
<circle cx="241" cy="36" r="25" transform="rotate(180 241 36)" fill="url(#paint0_linear_49_7520)"/>
<path d="M230.073 38.3437C231.851 35.7082 235.362 35.0464 238.297 34.8423C240.116 34.7156 242.021 34.7452 243.805 34.3172C245.295 33.9616 246.414 32.941 246.263 31.5994C246.09 30.0784 244.162 29.0396 242.972 28.4371C241.667 27.777 240.375 27.1844 239.39 26.0568C238.615 25.1679 238.442 23.93 238.865 22.8517C239.002 22.5044 239.319 22.0188 239.654 21.627C239.976 21.2484 240.041 21.092 239.759 21.2928C239.624 21.39 239.466 21.5217 239.285 21.6994C224.447 36.2469 214.193 47.9157 241.757 50.8133C238.59 49.6565 226.589 43.4948 230.073 38.342V38.3437Z" fill="url(#paint1_linear_49_7520)"/>
<path d="M239.947 25.0938C240.717 26.4848 242.934 27.1696 244.584 27.8708C245.981 28.4651 247.586 29.3869 248.291 30.8125C249.14 32.5295 248.326 34.1707 246.918 35.1633C245.117 36.4341 242.646 36.6267 240.52 36.8704C238.365 37.1156 236.057 37.216 234.335 38.9396C232.613 40.6614 233.253 42.8047 234.48 44.2566C242.906 54.2404 265.186 43.8099 254.617 32.9015L250.481 29.14L241.718 21.4097L241.713 21.4048C241.443 21.1364 241.005 21.1084 240.719 21.362C239.769 22.2015 239.341 23.9991 239.947 25.0921V25.0938Z" fill="url(#paint2_linear_49_7520)"/>
<defs>
<linearGradient id="paint0_linear_49_7520" x1="241" y1="11" x2="241" y2="61" gradientUnits="userSpaceOnUse">
<stop stop-color="#E25F00"/>
<stop offset="1" stop-color="#EE8F00"/>
</linearGradient>
<linearGradient id="paint1_linear_49_7520" x1="233.293" y1="21.2049" x2="233.293" y2="50.8133" gradientUnits="userSpaceOnUse">
<stop stop-color="#275435"/>
<stop offset="1" stop-color="#153D22"/>
</linearGradient>
<linearGradient id="paint2_linear_49_7520" x1="247.132" y1="21.1868" x2="247.132" y2="48.2067" gradientUnits="userSpaceOnUse">
<stop stop-color="#275435"/>
<stop offset="1" stop-color="#153D22"/>
</linearGradient>
</defs>
</svg>

